<svg width="258.63828125px" height="128px" xmlns="http://www.w3.org/2000/svg" viewBox="120.68085937500001 14 258.63828125 122" style="background: rgba(0, 0, 0, 0);" preserveAspectRatio="xMidYMid"><defs><filter id="editing-vr"><feFlood flood-color="#f00" flood-opacity="0.7" result="c1"></feFlood><feFlood flood-color="#00f" flood-opacity="0.7" result="c3"></feFlood><feComposite operator="in" in="c1" in2="SourceAlpha" result="text-c1"></feComposite><feComposite operator="in" in="c3" in2="SourceAlpha" result="text-c3"></feComposite><feOffset in="text-c1" dx="5" dy="-1" result="text1"></feOffset><feOffset in="text-c3" dx="-5" dy="1" result="text3"></feOffset><feBlend in="SourceGraphic" in2="text1" mode="multiply" result="text4"></feBlend><feBlend in="text4" in2="text3" mode="multiply"></feBlend></filter></defs><g filter="url(#editing-vr)"><g transform="translate(164.42783164978027, 99)"><path d="M29.18 1.28L29.18 1.28L29.18 1.28Q20.99 1.28 20.22-10.37L20.22-10.37L9.22-10.37L9.22-10.37Q7.94-7.42 7.04-4.86L7.04-4.86L5.38 0L-3.58 0L16.58-42.24L30.34-42.24L33.02-11.14L33.02-11.14Q33.66-4.42 36.22-2.43L36.22-2.43L36.22-2.43Q34.37 1.28 29.18 1.28ZM14.72-23.17L11.20-15.04L20.03-15.04L19.26-31.49L19.26-33.22L14.72-23.17ZM59.97-17.98L59.97-17.98L59.97-17.98Q62.27-22.08 62.27-26.24L62.27-26.24L62.27-26.24Q62.27-28.99 60.29-28.99L60.29-28.99L60.29-28.99Q58.75-28.99 57.15-26.37L57.15-26.37L57.15-26.37Q55.49-23.74 54.98-20.35L54.98-20.35L51.65 0L38.40 1.28L44.93-32.64L55.49-33.92L54.34-27.46L54.34-27.46Q57.47-33.92 64.51-33.92L64.51-33.92L64.51-33.92Q68.22-33.92 70.24-32L70.24-32L70.24-32Q72.26-30.08 72.26-26.14L72.26-26.14L72.26-26.14Q72.26-22.21 69.66-19.71L69.66-19.71L69.66-19.71Q67.07-17.22 62.66-17.22L62.66-17.22L62.66-17.22Q60.74-17.22 59.97-17.98ZM74.30-6.40L74.30-6.40L74.30-6.40Q74.30-8.13 75.20-12.48L75.20-12.48L78.59-29.76L74.82-29.76L75.07-31.68L75.07-31.68Q82.75-33.98 90.18-39.62L90.18-39.62L93.25-39.62L91.71-32.64L96.70-32.64L96.13-29.76L91.20-29.76L87.94-12.48L87.94-12.48Q87.10-8.51 87.10-7.17L87.10-7.17L87.10-7.17Q87.10-4.10 89.79-3.46L89.79-3.46L89.79-3.46Q89.15-1.28 86.85 0L86.85 0L86.85 0Q84.54 1.28 81.28 1.28L81.28 1.28L81.28 1.28Q78.02 1.28 76.16-0.77L76.16-0.77L76.16-0.77Q74.30-2.82 74.30-6.40ZM122.05-10.82L122.05-10.82L122.05-10.82Q123.65-9.73 123.65-7.33L123.65-7.33L123.65-7.33Q123.65-4.93 122.43-3.39L122.43-3.39L122.43-3.39Q121.22-1.86 119.23-0.83L119.23-0.83L119.23-0.83Q115.14 1.28 110.72 1.28L110.72 1.28L110.72 1.28Q106.30 1.28 103.71 0.32L103.71 0.32L103.71 0.32Q101.12-0.64 99.39-2.43L99.39-2.43L99.39-2.43Q96-5.82 96-12.03L96-12.03L96-12.03Q96-21.70 101.25-27.58L101.25-27.58L101.25-27.58Q106.88-33.92 116.67-33.92L116.67-33.92L116.67-33.92Q122.75-33.92 125.76-31.36L125.76-31.36L125.76-31.36Q128-29.44 128-26.30L128-26.30L128-26.30Q128-15.04 108.54-15.04L108.54-15.04L108.54-15.04Q108.29-13.38 108.29-11.97L108.29-11.97L108.29-11.97Q108.29-9.02 109.60-7.90L109.60-7.90L109.60-7.90Q110.91-6.78 113.34-6.78L113.34-6.78L113.34-6.78Q115.78-6.78 118.37-7.90L118.37-7.90L118.37-7.90Q120.96-9.02 122.05-10.82ZM108.99-17.79L108.99-17.79L108.99-17.79Q113.54-17.79 116.16-20.61L116.16-20.61L116.16-20.61Q118.78-23.30 118.78-27.58L118.78-27.58L118.78-27.58Q118.78-29.06 118.24-29.86L118.24-29.86L118.24-29.86Q117.70-30.66 116.61-30.66L116.61-30.66L116.61-30.66Q115.52-30.66 114.59-30.24L114.59-30.24L114.59-30.24Q113.66-29.82 112.70-28.42L112.70-28.42L112.70-28.42Q110.34-25.22 108.99-17.79ZM145.54-3.52L145.54-3.52L145.54-3.52Q143.55 1.28 137.22 1.28L137.22 1.28L137.22 1.28Q133.95 1.28 131.90-0.96L131.90-0.96L131.90-0.96Q130.18-2.94 130.18-4.93L130.18-4.93L130.18-4.93Q130.18-10.11 132.54-20.22L132.54-20.22L134.91-32.64L147.90-33.92L144.00-13.70L144.00-13.70Q142.91-8.96 142.91-7.30L142.91-7.30L142.91-7.30Q142.91-3.65 145.54-3.52ZM136.06-41.54L136.06-41.54L136.06-41.54Q136.06-44.03 138.14-45.38L138.14-45.38L138.14-45.38Q140.22-46.72 143.23-46.72L143.23-46.72L143.23-46.72Q146.24-46.72 148.06-45.38L148.06-45.38L148.06-45.38Q149.89-44.03 149.89-41.54L149.89-41.54L149.89-41.54Q149.89-39.04 147.87-37.76L147.87-37.76L147.87-37.76Q145.86-36.48 142.85-36.48L142.85-36.48L142.85-36.48Q139.84-36.48 137.95-37.76L137.95-37.76L137.95-37.76Q136.06-39.04 136.06-41.54ZM166.34-3.52L166.34-3.52L166.34-3.52Q164.35 1.28 158.02 1.28L158.02 1.28L158.02 1.28Q154.75 1.28 152.70-0.96L152.70-0.96L152.70-0.96Q150.98-2.94 150.98-4.93L150.98-4.93L150.98-4.93Q150.98-10.11 153.34-20.22L153.34-20.22L155.71-32.64L168.70-33.92L164.80-13.70L164.80-13.70Q163.71-8.96 163.71-7.30L163.71-7.30L163.71-7.30Q163.71-3.65 166.34-3.52ZM156.86-41.54L156.86-41.54L156.86-41.54Q156.86-44.03 158.94-45.38L158.94-45.38L158.94-45.38Q161.02-46.72 164.03-46.72L164.03-46.72L164.03-46.72Q167.04-46.72 168.86-45.38L168.86-45.38L168.86-45.38Q170.69-44.03 170.69-41.54L170.69-41.54L170.69-41.54Q170.69-39.04 168.67-37.76L168.67-37.76L168.67-37.76Q166.66-36.48 163.65-36.48L163.65-36.48L163.65-36.48Q160.64-36.48 158.75-37.76L158.75-37.76L158.75-37.76Q156.86-39.04 156.86-41.54Z" fill="#444"></path></g></g><style>text {
  font-size: 128px;
  font-family: Arial Black;
  dominant-baseline: central;
  text-anchor: middle;
}</style></svg>